<svg width="120" height="120" viewBox="0 0 120 120" fill="none" xmlns="http://www.w3.org/2000/svg">
<rect x="0.45166" y="0.172241" width="119.097" height="119.097" rx="59.5484" fill="#F2F2F2"/>
<path d="M21.0339 63.192C20.6434 62.8014 20.6434 62.1683 21.0339 61.7778L32.1666 50.6451C32.5571 50.2546 33.1903 50.2546 33.5808 50.6451L36.9791 54.0434C37.3696 54.4339 37.3696 55.0671 36.9791 55.4576L25.8464 66.5902C25.4559 66.9808 24.8227 66.9808 24.4322 66.5902L21.0339 63.192ZM21.0339 31.567C20.6434 31.1765 20.6434 30.5433 21.0339 30.1528L24.4322 26.7545C24.8227 26.364 25.4559 26.364 25.8464 26.7545L40.2447 41.1528C40.6352 41.5433 41.2684 41.5433 41.6589 41.1528L44.1405 38.6712C44.531 38.2807 44.531 37.6475 44.1405 37.257L43.9506 37.067C43.56 36.6765 43.56 36.0433 43.9506 35.6528L44.4582 35.1452C45.0882 34.5152 44.642 33.438 43.7511 33.438L41.8816 33.438C41.6164 33.438 41.3621 33.3327 41.1745 33.1452L40.5704 32.541C40.1798 32.1505 40.1798 31.5173 40.5704 31.1268L46.0884 25.6087C46.4789 25.2182 47.1121 25.2182 47.5026 25.6087L48.1068 26.2129C48.2943 26.4004 48.3997 26.6548 48.3997 26.92L48.3997 28.7895C48.3997 29.6804 49.4768 30.1265 50.1068 29.4966L50.5572 29.0462C50.9477 28.6557 51.5808 28.6557 51.9714 29.0462L59.3997 36.4745C60.1635 37.2384 60.7174 38.0596 61.0611 38.938C61.4049 39.8165 61.5767 40.7141 61.5767 41.6307C61.5767 42.5474 61.4049 43.445 61.0611 44.3234C60.8267 44.9226 60.4945 45.495 60.0647 46.0409C59.723 46.4748 59.0831 46.4704 58.6926 46.0799L54.8359 42.2233C54.4454 41.8327 53.8123 41.8327 53.4217 42.2233L51.9714 43.6736C51.5808 44.0642 50.9477 44.0642 50.5572 43.6736L50.3672 43.4837C49.9767 43.0932 49.3435 43.0932 48.953 43.4837L46.4714 45.9653C46.0809 46.3558 46.0809 46.989 46.4714 47.3795L50.4702 51.3783C50.7449 51.653 51.1527 51.7393 51.5261 51.632C51.7581 51.5654 51.9955 51.5068 52.2382 51.4562C52.6966 51.3608 53.1549 51.313 53.6132 51.313C55.8667 51.313 57.7669 52.0864 59.3137 53.6333C60.8606 55.1802 61.634 57.0804 61.634 59.3338C61.634 59.9067 61.5767 60.451 61.4622 60.9666C61.449 61.0259 61.435 61.0853 61.4204 61.1449C61.2509 61.8318 60.4024 61.998 59.9021 61.4977L55.9818 57.5774C55.5913 57.1869 54.9581 57.1869 54.5676 57.5774L51.8568 60.2882C51.4663 60.6787 51.4663 61.3119 51.8568 61.7024L55.8405 65.6861C56.3231 66.1687 56.1878 66.9903 55.5246 67.1517C55.4314 67.1744 55.3386 67.1943 55.246 67.2114C54.7304 67.3069 54.1861 67.3546 53.6132 67.3546C51.3597 67.3546 49.4596 66.5812 47.9127 65.0343C46.3658 63.4875 45.5924 61.5873 45.5924 59.3338C45.5924 58.8755 45.6306 58.4172 45.707 57.9588C45.745 57.7308 45.7972 57.5076 45.8635 57.289C45.9846 56.8902 45.9128 56.4459 45.618 56.1511L21.0339 31.567Z" fill="#266CA8"/>
<path d="M66.5577 37.4298C66.1477 37.3712 65.7678 37.6561 65.7092 38.0662C65.6506 38.4762 65.9355 38.8561 66.3456 38.9147L66.5577 37.4298ZM78.5569 51.8099C78.9091 52.028 79.3713 51.9192 79.5894 51.567L83.1423 45.8277C83.3603 45.4755 83.2515 45.0133 82.8993 44.7953C82.5471 44.5772 82.0849 44.686 81.8669 45.0382L78.7087 50.1398L73.6071 46.9816C73.2549 46.7636 72.7927 46.8724 72.5747 47.2246C72.3566 47.5768 72.4654 48.039 72.8176 48.257L78.5569 51.8099ZM66.3456 38.9147C70.7043 39.5374 76.2918 43.1422 78.2216 51.344L79.6817 51.0005C77.6116 42.2023 71.5324 38.1404 66.5577 37.4298L66.3456 38.9147Z" fill="#266CA8"/>
<path d="M31.7803 72.1847C31.9649 71.814 32.4152 71.663 32.786 71.8477L38.8284 74.8563C39.1991 75.0409 39.3501 75.4912 39.1654 75.862C38.9808 76.2328 38.5306 76.3837 38.1598 76.1991L32.7887 73.5247L30.1144 78.8957C29.9298 79.2665 29.4795 79.4174 29.1087 79.2328C28.7379 79.0482 28.587 78.5979 28.7716 78.2271L31.7803 72.1847ZM47.5318 81.7178C47.9455 81.7383 48.2642 82.0903 48.2437 82.504C48.2232 82.9177 47.8712 83.2365 47.4575 83.2159L47.5318 81.7178ZM33.1628 72.2807C34.5621 76.4554 39.1164 81.3003 47.5318 81.7178L47.4575 83.2159C38.4301 82.7681 33.3376 77.5221 31.7405 72.7574L33.1628 72.2807Z" fill="#266CA8"/>
<path d="M91.9267 82.0871L91.7583 81.4784L91.9267 82.0871C92.0909 82.0417 92.2588 82.0011 92.4305 81.9653C92.7891 81.8906 93.1459 81.8536 93.5017 81.8536C95.3065 81.8536 96.8025 82.466 98.0301 83.6936C99.2577 84.9212 99.8701 86.4172 99.8701 88.222C99.8701 88.6798 99.8244 89.1086 99.7352 89.51C99.724 89.5603 99.7047 89.5863 99.6888 89.6015C99.6709 89.6187 99.6436 89.6352 99.6046 89.6439C99.5247 89.6617 99.4147 89.6418 99.3238 89.5509L96.1054 86.3325C95.4682 85.6953 94.4352 85.6953 93.798 86.3325L91.6122 88.5183C90.975 89.1555 90.975 90.1885 91.6122 90.8257L94.8741 94.0875C94.9666 94.18 94.9871 94.2923 94.972 94.3668C94.9648 94.4018 94.9516 94.4218 94.9417 94.4321C94.9342 94.44 94.9169 94.4552 94.8723 94.4642C94.8521 94.4683 94.8319 94.4722 94.8117 94.476C94.4029 94.5517 93.9666 94.5904 93.5017 94.5904C91.6969 94.5904 90.2009 93.978 88.9733 92.7504C87.7457 91.5228 87.1333 90.0268 87.1333 88.222C87.1333 87.8573 87.1637 87.492 87.2247 87.1258C87.2492 86.9789 87.2814 86.8349 87.3213 86.6939C87.4818 86.126 87.4005 85.4276 86.9083 84.9354L65.6054 63.6325C65.4615 63.4886 65.4615 63.2554 65.6054 63.1115L68.3912 60.3257C68.5351 60.1818 68.7683 60.1818 68.9122 60.3257L81.298 72.7115C81.9352 73.3487 82.9682 73.3487 83.6054 72.7115L85.5983 70.7186C86.2315 70.0853 86.2315 69.0586 85.5983 68.4254C85.4583 68.2855 85.4583 68.0585 85.5983 67.9186L85.7412 67.7757C86.769 66.7479 86.0411 64.9904 84.5875 64.9904L83.3159 64.9904C83.2182 64.9904 83.1245 64.9516 83.0554 64.8825L82.6554 64.4825C82.5115 64.3386 82.5115 64.1054 82.6554 63.9615L87.2912 59.3257L86.8446 58.8791L87.2912 59.3257C87.4351 59.1818 87.6683 59.1818 87.8122 59.3257L88.2122 59.7257L88.6547 59.2832L88.2122 59.7257C88.2813 59.7948 88.3201 59.8885 88.3201 59.9862L88.3201 61.2578C88.3201 62.7114 90.0776 63.4393 91.1054 62.4115L91.1912 62.3257L90.7446 61.8791L91.1912 62.3257C91.3351 62.1818 91.5683 62.1818 91.7122 62.3257L98.1051 68.7186C98.7191 69.3325 99.1496 69.9776 99.4136 70.6521C99.6857 71.3476 99.8201 72.0531 99.8201 72.772C99.8201 73.4909 99.6857 74.1963 99.4136 74.8919C99.2459 75.3203 99.0115 75.7359 98.7064 76.1388C98.6654 76.1929 98.6091 76.2212 98.5361 76.2226C98.4577 76.2242 98.3653 76.1924 98.2912 76.1183L97.8446 76.5649L98.2912 76.1183L95.1054 72.9325C94.4682 72.2953 93.4352 72.2953 92.798 72.9325L91.7051 74.0254C91.5652 74.1654 91.3383 74.1654 91.1983 74.0254C90.5651 73.3922 89.5384 73.3922 88.9051 74.0254L86.9122 76.0183C86.2751 76.6555 86.275 77.6885 86.9122 78.3257L90.2548 81.6683C90.7092 82.1227 91.36 82.2439 91.9267 82.0871ZM65.6054 91.2325C65.4615 91.0886 65.4615 90.8554 65.6054 90.7115L75.1412 81.1757C75.2851 81.0318 75.5183 81.0318 75.6622 81.1757L78.448 83.9615C78.5919 84.1054 78.5919 84.3386 78.448 84.4825L68.9122 94.0183C68.7683 94.1622 68.5351 94.1622 68.3912 94.0183L65.6054 91.2325Z" stroke="#266CA8" stroke-width="1.26316"/>
</svg>
