<svg width="29" height="30" viewBox="0 0 29 30" fill="none" xmlns="http://www.w3.org/2000/svg">
<path fill-rule="evenodd" clip-rule="evenodd" d="M22.8577 11.0384C22.804 11.035 22.7455 11.0351 22.6848 11.0351L22.6697 11.0351H20.2906C18.3296 11.0351 16.6516 12.5787 16.6516 14.5916C16.6516 16.6046 18.3296 18.1482 20.2906 18.1482H22.6697L22.6848 18.1482C22.7455 18.1482 22.804 18.1482 22.8577 18.1448C23.6543 18.0945 24.3587 17.4712 24.4179 16.6006C24.4218 16.5435 24.4218 16.4819 24.4217 16.4249L24.4217 16.4094V12.7738L24.4217 12.7584C24.4218 12.7013 24.4218 12.6398 24.4179 12.5827C24.3587 11.7121 23.6543 11.0887 22.8577 11.0384ZM20.0796 15.54C20.5845 15.54 20.9937 15.1154 20.9937 14.5916C20.9937 14.0678 20.5845 13.6432 20.0796 13.6432C19.5747 13.6432 19.1655 14.0678 19.1655 14.5916C19.1655 15.1154 19.5747 15.54 20.0796 15.54Z" fill="black" fill-opacity="0.5"/>
<path fill-rule="evenodd" clip-rule="evenodd" d="M22.6842 19.5708C22.8256 19.5671 22.9326 19.6981 22.8942 19.8343C22.7038 20.51 22.4017 21.0859 21.9168 21.5708C21.207 22.2805 20.307 22.5955 19.1951 22.745C18.1146 22.8903 16.7341 22.8903 14.9911 22.8902H12.9873C11.2443 22.8903 9.8638 22.8903 8.78335 22.745C7.67141 22.5955 6.77142 22.2805 6.06166 21.5708C5.3519 20.861 5.03692 19.961 4.88742 18.8491C4.74216 17.7686 4.74217 16.3881 4.74219 14.6451V14.5381C4.74217 12.7952 4.74216 11.4146 4.88742 10.3342C5.03692 9.22224 5.3519 8.32225 6.06166 7.61249C6.77142 6.90273 7.67141 6.58775 8.78335 6.43825C9.8638 6.29299 11.2443 6.293 12.9873 6.29302L14.9911 6.29302C16.7341 6.293 18.1146 6.29299 19.1951 6.43825C20.307 6.58775 21.207 6.90273 21.9168 7.61249C22.4017 8.0974 22.7038 8.67329 22.8942 9.34898C22.9326 9.48514 22.8256 9.61613 22.6842 9.61247L20.2905 9.61247C17.6002 9.61247 15.2289 11.7378 15.2289 14.5916C15.2289 17.4455 17.6002 19.5708 20.2905 19.5708L22.6842 19.5708ZM8.29874 10.0867C7.90589 10.0867 7.58743 10.4051 7.58743 10.798C7.58743 11.1908 7.90589 11.5093 8.29874 11.5093H12.0924C12.4852 11.5093 12.8037 11.1908 12.8037 10.798C12.8037 10.4051 12.4852 10.0867 12.0924 10.0867H8.29874Z" fill="black" fill-opacity="0.5"/>
</svg>
