<svg width="29" height="29" viewBox="0 0 29 29" fill="none" xmlns="http://www.w3.org/2000/svg">
<path d="M4.74219 9.17554C4.74219 7.29307 4.74219 6.35184 5.3672 5.76703C5.99221 5.18222 6.99816 5.18222 9.01004 5.18222C11.0219 5.18222 12.0279 5.18222 12.6529 5.76703C13.2779 6.35184 13.2779 7.29307 13.2779 9.17554V20.1572C13.2779 22.0396 13.2779 22.9809 12.6529 23.5657C12.0279 24.1505 11.0219 24.1505 9.01004 24.1505C6.99816 24.1505 5.99221 24.1505 5.3672 23.5657C4.74219 22.9809 4.74219 22.0396 4.74219 20.1572V9.17554Z" fill="black" fill-opacity="0.5"/>
<path d="M15.1748 17.8909C15.1748 15.9238 15.1748 14.9402 15.7998 14.3291C16.4248 13.7179 17.4308 13.7179 19.4427 13.7179C21.4545 13.7179 22.4605 13.7179 23.0855 14.3291C23.7105 14.9402 23.7105 15.9238 23.7105 17.8909V19.9775C23.7105 21.9446 23.7105 22.9282 23.0855 23.5393C22.4605 24.1505 21.4545 24.1505 19.4427 24.1505C17.4308 24.1505 16.4248 24.1505 15.7998 23.5393C15.1748 22.9282 15.1748 21.9446 15.1748 19.9775V17.8909Z" fill="black" fill-opacity="0.5"/>
<path d="M15.1748 8.50166C15.1748 7.47055 15.1748 6.955 15.3372 6.54832C15.5538 6.00608 15.9692 5.57527 16.4921 5.35067C16.8843 5.18222 17.3814 5.18222 18.3757 5.18222H20.5096C21.5039 5.18222 22.0011 5.18222 22.3932 5.35067C22.9161 5.57527 23.3315 6.00608 23.5481 6.54832C23.7105 6.955 23.7105 7.47055 23.7105 8.50166C23.7105 9.53278 23.7105 10.0483 23.5481 10.455C23.3315 10.9972 22.9161 11.4281 22.3932 11.6527C22.0011 11.8211 21.5039 11.8211 20.5096 11.8211H18.3757C17.3814 11.8211 16.8843 11.8211 16.4921 11.6527C15.9692 11.4281 15.5538 10.9972 15.3372 10.455C15.1748 10.0483 15.1748 9.53278 15.1748 8.50166Z" fill="black" fill-opacity="0.5"/>
</svg>
