<svg width="25" height="25" viewBox="0 0 25 25" fill="none" xmlns="http://www.w3.org/2000/svg">
<path fill-rule="evenodd" clip-rule="evenodd" d="M4.38503 8.93874C3.9408 9.86537 4.09674 10.9491 4.40863 13.1167L4.63776 14.7091C5.0384 17.4934 5.23871 18.8856 6.20457 19.7173C7.17042 20.5489 8.58688 20.5489 11.4198 20.5489H13.2381C16.071 20.5489 17.4875 20.5489 18.4533 19.7173C19.4192 18.8856 19.6195 17.4934 20.0201 14.7091L20.2493 13.1167C20.5612 10.9491 20.7171 9.86537 20.2729 8.93874C19.8286 8.01211 18.8831 7.44886 16.992 6.32234L15.8537 5.64427C14.1364 4.62128 13.2777 4.10979 12.329 4.10979C11.3802 4.10979 10.5215 4.62128 8.80419 5.64428L7.66591 6.32234C5.77482 7.44886 4.82927 8.01211 4.38503 8.93874ZM9.24669 17.2609C9.24669 16.9205 9.5227 16.6445 9.86316 16.6445H14.7949C15.1354 16.6445 15.4114 16.9205 15.4114 17.2609C15.4114 17.6014 15.1354 17.8774 14.7949 17.8774H9.86316C9.5227 17.8774 9.24669 17.6014 9.24669 17.2609Z" fill="#797979"/>
</svg>
