<svg width="21" height="22" viewBox="0 0 21 22" fill="none" xmlns="http://www.w3.org/2000/svg">
<path d="M6.825 11.7844L8.51667 10.2619C8.75 10.0519 8.862 9.80688 8.85267 9.52687C8.84333 9.24687 8.73133 9.00187 8.51667 8.79187C8.28333 8.58187 8.00644 8.47267 7.686 8.46427C7.36555 8.45587 7.08828 8.55632 6.85417 8.76562L4.31667 11.0494C4.08333 11.2594 3.96667 11.5044 3.96667 11.7844C3.96667 12.0644 4.08333 12.3094 4.31667 12.5194L6.85417 14.8031C7.0875 15.0131 7.36478 15.1139 7.686 15.1055C8.00722 15.0971 8.28411 14.9876 8.51667 14.7769C8.73055 14.5669 8.84256 14.3219 8.85267 14.0419C8.86278 13.7619 8.75078 13.5169 8.51667 13.3069L6.825 11.7844ZM14.175 11.7844L12.4833 13.3069C12.25 13.5169 12.138 13.7619 12.1473 14.0419C12.1567 14.3219 12.2687 14.5669 12.4833 14.7769C12.7167 14.9869 12.9939 15.0961 13.3152 15.1045C13.6364 15.1129 13.9133 15.0124 14.1458 14.8031L16.6833 12.5194C16.9167 12.3094 17.0333 12.0644 17.0333 11.7844C17.0333 11.5044 16.9167 11.2594 16.6833 11.0494L14.1458 8.76562C13.9125 8.55562 13.6356 8.45482 13.3152 8.46322C12.9947 8.47162 12.7174 8.58117 12.4833 8.79187C12.2694 9.00187 12.1578 9.24687 12.1485 9.52687C12.1392 9.80688 12.2508 10.0519 12.4833 10.2619L14.175 11.7844ZM2.33333 21.2344C1.69167 21.2344 1.14256 21.0289 0.686 20.618C0.229444 20.2071 0.000777778 19.7126 0 19.1344V4.43437C0 3.85687 0.228667 3.36267 0.686 2.95177C1.14333 2.54087 1.69244 2.33507 2.33333 2.33437H7.23333C7.48611 1.70437 7.90922 1.19687 8.50266 0.811875C9.09611 0.426875 9.76189 0.234375 10.5 0.234375C11.2381 0.234375 11.9043 0.426875 12.4985 0.811875C13.0927 1.19687 13.5154 1.70437 13.7667 2.33437H18.6667C19.3083 2.33437 19.8578 2.54017 20.3152 2.95177C20.7725 3.36337 21.0008 3.85757 21 4.43437V19.1344C21 19.7119 20.7717 20.2064 20.3152 20.618C19.8586 21.0296 19.3091 21.2351 18.6667 21.2344H2.33333ZM10.5 3.64687C10.7528 3.64687 10.962 3.57232 11.1277 3.42322C11.2933 3.27413 11.3758 3.08617 11.375 2.85937C11.3742 2.63257 11.2914 2.44462 11.1265 2.29552C10.9616 2.14642 10.7528 2.07187 10.5 2.07187C10.2472 2.07187 10.0384 2.14642 9.8735 2.29552C9.70861 2.44462 9.62578 2.63257 9.625 2.85937C9.62422 3.08617 9.70705 3.27447 9.8735 3.42427C10.0399 3.57407 10.2488 3.64827 10.5 3.64687Z" fill="black" fill-opacity="0.5"/>
</svg>
