<svg
  width="34"
  height="34"
  viewBox="0 0 34 34"
  fill="none"
  xmlns="http://www.w3.org/2000/svg"
>
<path
    fill-rule="evenodd"
    clip-rule="evenodd"
    d="M22.3835 7.93307C22.3835 9.65436 20.9881 11.0497 19.2668 11.0497C17.5455 11.0497 16.1501 9.65436 16.1501 7.93307C16.1501 6.21179 17.5455 4.81641 19.2668 4.81641C20.9881 4.81641 22.3835 6.21179 22.3835 7.93307ZM19.2668 9.34974C20.0492 9.34974 20.6835 8.71548 20.6835 7.93307C20.6835 7.15067 20.0492 6.51641 19.2668 6.51641C18.4844 6.51641 17.8501 7.15067 17.8501 7.93307C17.8501 8.71548 18.4844 9.34974 19.2668 9.34974Z"
    fill="#266CA8"
  />
<path
    fill-rule="evenodd"
    clip-rule="evenodd"
    d="M17.0001 20.1164C15.2788 20.1164 13.8835 18.721 13.8835 16.9997C13.8835 15.2785 15.2788 13.8831 17.0001 13.8831C18.7214 13.8831 20.1168 15.2785 20.1168 16.9997C20.1168 18.721 18.7214 20.1164 17.0001 20.1164ZM15.5835 16.9997C15.5835 17.7821 16.2177 18.4164 17.0001 18.4164C17.7825 18.4164 18.4168 17.7821 18.4168 16.9997C18.4168 16.2173 17.7825 15.5831 17.0001 15.5831C16.2177 15.5831 15.5835 16.2173 15.5835 16.9997Z"
    fill="#266CA8"
  />
<path
    fill-rule="evenodd"
    clip-rule="evenodd"
    d="M14.7335 29.1831C13.0122 29.1831 11.6168 27.7877 11.6168 26.0664C11.6168 24.3451 13.0122 22.9497 14.7335 22.9497C16.4548 22.9497 17.8501 24.3451 17.8501 26.0664C17.8501 27.7877 16.4548 29.1831 14.7335 29.1831ZM13.3168 26.0664C13.3168 26.8488 13.9511 27.4831 14.7335 27.4831C15.5159 27.4831 16.1501 26.8488 16.1501 26.0664C16.1501 25.284 15.5159 24.6497 14.7335 24.6497C13.9511 24.6497 13.3168 25.284 13.3168 26.0664Z"
    fill="#266CA8"
  />
<path
    d="M20.6835 16.9997C20.6835 16.5303 21.064 16.1497 21.5335 16.1497H24.9335C25.4029 16.1497 25.7835 16.5303 25.7835 16.9997C25.7835 17.4692 25.4029 17.8497 24.9335 17.8497H21.5335C21.064 17.8497 20.6835 17.4692 20.6835 16.9997Z"
    fill="#266CA8"
  />
<path
    d="M19.2668 25.2164C18.7974 25.2164 18.4168 25.597 18.4168 26.0664C18.4168 26.5358 18.7974 26.9164 19.2668 26.9164H24.9335C25.4029 26.9164 25.7835 26.5358 25.7835 26.0664C25.7835 25.597 25.4029 25.2164 24.9335 25.2164H19.2668Z"
    fill="#266CA8"
  />
<path
    d="M15.5835 7.93307C15.5835 7.46363 15.2029 7.08307 14.7335 7.08307L9.0668 7.08307C8.59735 7.08307 8.2168 7.46363 8.2168 7.93307C8.2168 8.40252 8.59735 8.78307 9.0668 8.78307L14.7335 8.78307C15.2029 8.78307 15.5835 8.40251 15.5835 7.93307Z"
    fill="#266CA8"
  />
<path
    d="M9.0668 16.1497C8.59735 16.1497 8.2168 16.5303 8.2168 16.9997C8.2168 17.4692 8.59735 17.8497 9.0668 17.8497H12.4668C12.9362 17.8497 13.3168 17.4692 13.3168 16.9997C13.3168 16.5303 12.9362 16.1497 12.4668 16.1497H9.0668Z"
    fill="#266CA8"
  />
<path
    d="M8.2168 26.0664C8.2168 25.597 8.59735 25.2164 9.0668 25.2164H10.2001C10.6696 25.2164 11.0501 25.597 11.0501 26.0664C11.0501 26.5358 10.6696 26.9164 10.2001 26.9164H9.0668C8.59735 26.9164 8.2168 26.5358 8.2168 26.0664Z"
    fill="#266CA8"
  />
<path
    d="M24.9335 7.08307C25.4029 7.08307 25.7835 7.46363 25.7835 7.93307C25.7835 8.40251 25.4029 8.78307 24.9335 8.78307H23.8001C23.3307 8.78307 22.9501 8.40251 22.9501 7.93307C22.9501 7.46363 23.3307 7.08307 23.8001 7.08307H24.9335Z"
    fill="#266CA8"
  />
</svg>
