<svg
  width="28"
  height="28"
  viewBox="0 0 28 28"
  fill="none"
  xmlns="http://www.w3.org/2000/svg"
>
<path
    d="M14.4243 5.57574C14.1899 5.34142 13.8101 5.34142 13.5757 5.57574L9.75736 9.39411C9.52304 9.62843 9.52304 10.0083 9.75736 10.2426C9.99167 10.477 10.3716 10.477 10.6059 10.2426L14 6.84853L17.3941 10.2426C17.6284 10.477 18.0083 10.477 18.2426 10.2426C18.477 10.0083 18.477 9.62843 18.2426 9.39411L14.4243 5.57574ZM13.5757 22.4243C13.81 22.6586 14.1899 22.6586 14.4243 22.4243L18.2426 18.6059C18.477 18.3716 18.477 17.9917 18.2426 17.7574C18.0083 17.523 17.6284 17.523 17.3941 17.7574L14 21.1515L10.6059 17.7574C10.3716 17.523 9.99167 17.523 9.75736 17.7574C9.52304 17.9917 9.52304 18.3716 9.75736 18.6059L13.5757 22.4243ZM14 6L13.4 6L13.4 22L14 22L14.6 22L14.6 6L14 6Z"
    fill="#222222"
    fill-opacity="0.5"
  />
</svg>
