<svg
  width="19"
  height="10"
  viewBox="0 0 19 10"
  fill="none"
  xmlns="http://www.w3.org/2000/svg"
>
<path
    d="M17.9243 5.42426C18.1586 5.18995 18.1586 4.81005 17.9243 4.57574L14.1059 0.757359C13.8716 0.523044 13.4917 0.523044 13.2574 0.757359C13.023 0.991674 13.023 1.37157 13.2574 1.60589L16.6515 5L13.2574 8.39411C13.023 8.62843 13.023 9.00833 13.2574 9.24264C13.4917 9.47696 13.8716 9.47696 14.1059 9.24264L17.9243 5.42426ZM1.07574 4.57573C0.841421 4.81005 0.841421 5.18995 1.07574 5.42426L4.89411 9.24264C5.12843 9.47695 5.50833 9.47695 5.74264 9.24264C5.97696 9.00833 5.97696 8.62843 5.74264 8.39411L2.34853 5L5.74264 1.60589C5.97696 1.37157 5.97696 0.991673 5.74264 0.757358C5.50833 0.523044 5.12843 0.523044 4.89411 0.757358L1.07574 4.57573ZM17.5 5L17.5 4.4L1.5 4.4L1.5 5L1.5 5.6L17.5 5.6L17.5 5Z"
    fill="#222222"
    fill-opacity="0.5"
  />
</svg>
